<svg xmlns="http://www.w3.org/2000/svg" viewBox="0 0 512 512">
  <defs>
    <linearGradient id="bg" x1="0%" y1="0%" x2="100%" y2="100%">
      <stop offset="0%" style="stop-color:#080820"/>
      <stop offset="100%" style="stop-color:#0c0a23"/>
    </linearGradient>
    <radialGradient id="ghostGrad" cx="50%" cy="30%" r="55%">
      <stop offset="0%" style="stop-color:#f0f4ff;stop-opacity:1"/>
      <stop offset="40%" style="stop-color:#dce4ff;stop-opacity:0.95"/>
      <stop offset="70%" style="stop-color:#b3c7ff;stop-opacity:0.85"/>
      <stop offset="100%" style="stop-color:#8aa8f0;stop-opacity:0.7"/>
    </radialGradient>
    <radialGradient id="aura" cx="50%" cy="40%" r="65%">
      <stop offset="0%" style="stop-color:#b3c7ff;stop-opacity:0.25"/>
      <stop offset="100%" style="stop-color:#6b8cff;stop-opacity:0"/>
    </radialGradient>
  </defs>
  <rect width="512" height="512" rx="96" fill="url(#bg)"/>
  <ellipse cx="256" cy="240" rx="160" ry="170" fill="url(#aura)"/>
  <g transform="translate(116, 40) scale(2.55)">
    <path d="M 55 8 C 28 8, 12 26, 12 50 C 12 72, 18 88, 24 100 C 28 108, 22 118, 18 124 C 26 122, 34 112, 38 120 C 42 128, 46 116, 55 122 C 64 116, 68 128, 72 120 C 76 112, 84 122, 92 124 C 88 118, 82 108, 86 100 C 92 88, 98 72, 98 50 C 98 26, 82 8, 55 8 Z" fill="url(#ghostGrad)"/>
    <ellipse cx="40" cy="48" rx="6" ry="7" fill="#1a1a3e" opacity="0.9"/>
    <ellipse cx="70" cy="48" rx="6" ry="7" fill="#1a1a3e" opacity="0.9"/>
    <circle cx="42" cy="46" r="2.5" fill="white" opacity="0.95"/>
    <circle cx="72" cy="46" r="2.5" fill="white" opacity="0.95"/>
    <circle cx="43" cy="45" r="1" fill="white" opacity="0.6"/>
    <circle cx="73" cy="45" r="1" fill="white" opacity="0.6"/>
    <path d="M 45 65 Q 55 74, 65 65" fill="none" stroke="#2a2a5e" stroke-width="2" stroke-linecap="round"/>
    <ellipse cx="34" cy="58" rx="7" ry="4" fill="#c4b5fd" opacity="0.2"/>
    <ellipse cx="76" cy="58" rx="7" ry="4" fill="#c4b5fd" opacity="0.2"/>
  </g>
  <circle cx="410" cy="80" r="6" fill="white" opacity="0.5"/>
  <circle cx="100" cy="100" r="4" fill="white" opacity="0.35"/>
  <circle cx="380" cy="420" r="3" fill="#b3c7ff" opacity="0.4"/>
</svg>
